# xmcd
#
# Track frame offsets:
#	150
#	18820
#	34064
#	53687
#	69158
#	87694
#	106380
#	125227
#	143565
#	161697
#	183605
#	201747
#	222686
#	241707
#	261037
#
# Disc length: 3702 seconds
#
# Revision: 0
# Processed by: cddbd v1.5.2PL0 Copyright (c) Steve Scherf et al.
# Submitted via: EasyCDDAExtractor 12.1.0.1
#
DISCID=de0e740f
DTITLE=Juan Luis Guerra - Grandes Exitos
DYEAR=1900
DGENRE=
TTITLE0=El Costo De La Vida
TTITLE1=Rosalia
TTITLE2=Woman Del Callao
TTITLE3=Visa Para Un Sueño
TTITLE4=Burbujas De Amor
TTITLE5=Ojala Que Llueva Cafe
TTITLE6=Me Enamoro De Ella
TTITLE7=Frio Frio
TTITLE8=Como Abeja Al Panal
TTITLE9=A Pedir Su Mano
TTITLE10=La Bilirubina
TTITLE11=Carta De Amor
TTITLE12=Bachata Rosa
TTITLE13=Guavaberry
TTITLE14=La Cosquillita
EXTD=
EXTT0=
EXTT1=
EXTT2=
EXTT3=
EXTT4=
EXTT5=
EXTT6=
EXTT7=
EXTT8=
EXTT9=
EXTT10=
EXTT11=
EXTT12=
EXTT13=
EXTT14=
PLAYORDER=
